#Comment line ignore any data following # character 
#Hierarchical Translation and Rotation (.htr) file 
[Header]	
#Header keywords are followed by a single value 
FileType HTR		#Single word string
DataType HTRS		#Translation followed by rotation and scale data
FileVersion 1		#integer
NumSegments 64		#integer
NumFrames 3		#integer
DataFrameRate 30		#integer, data frame rate in this file
EulerRotationOrder ZYX
CalibrationUnits mm
RotationUnits Degrees
GlobalAxisofGravity Y
BoneLengthAxis Y
ScaleFactor 1.00
[SegmentNames&Hierarchy]
#CHILD	PARENT
Pinger_Root GLOBAL
Pelvis Pinger_Root
L_Hip Pelvis
R_Hip Pelvis
Rear_Leg01 Pelvis
Spine1 Pelvis
L_Leg01 L_Hip
L_Leg02 L_Leg01
L_Leg03 L_Leg02
L_Foot L_Leg03
L_Toe1_01 L_Foot
L_Toe2_01 L_Foot
L_Toe3_01 L_Foot
planeAlignerLeft L_Foot
L_Toe1_02 L_Toe1_01
L_Toe1_03 L_Toe1_02
L_Toe2_02 L_Toe2_01
L_Toe2_03 L_Toe2_02
L_Toe3_02 L_Toe3_01
L_Toe3_03 L_Toe3_02
planeLockWeightLeft planeAlignerLeft
R_Leg01 R_Hip
R_Leg02 R_Leg01
R_Leg03 R_Leg02
R_Foot R_Leg03
planeAlignerRight R_Foot
R_Toe1_01 R_Foot
R_Toe2_01 R_Foot
R_Toe3_01 R_Foot
planeLockWeightRight planeAlignerRight
R_Toe1_02 R_Toe1_01
R_Toe1_03 R_Toe1_02
R_Toe2_02 R_Toe2_01
R_Toe2_03 R_Toe2_02
R_Toe3_02 R_Toe3_01
R_Toe3_03 R_Toe3_02
Rear_Leg02 Rear_Leg01
Rear_Leg03 Rear_Leg02
Rear_Leg04 Rear_Leg03
Rear_Foot Rear_Leg04
planeAlignerCenter Rear_Foot
Rear_Toe1_01 Rear_Foot
Rear_Toe2_01 Rear_Foot
Rear_Toe3_01 Rear_Foot
planeLockWeightCenter planeAlignerCenter
Rear_Toe1_02 Rear_Toe1_01
Rear_Toe1_03 Rear_Toe1_02
Rear_Toe2_02 Rear_Toe2_01
Rear_Toe2_03 Rear_Toe2_02
Rear_Toe3_02 Rear_Toe3_01
Rear_Toe3_03 Rear_Toe3_02
Back_Bone Spine1
Head Spine1
Motor_Bone Back_Bone
Ping_Mechanism Back_Bone
BN_LookIK Head
bottomMouth Head
L_Mouth01 Head
L_mouthFront Head
mouthGun Head
R_Mouth01 Head
R_mouthFront Head
TopMouth Head
weapon_bone Head
[BasePosition]
#SegmentName Tx, Ty, Tz, Rx, Ry, Rz, BoneLength
Pinger_Root 0.000000 0.000000 0.000000 -90.000000 0.000000 0.000000 10.000000 
Pelvis 0.000000 0.000000 0.000000 0.000000 0.000000 0.000000 10.000000 
L_Hip 0.000000 0.000000 0.000000 0.000000 0.000000 0.000000 10.000000 
R_Hip 0.000000 0.000000 0.000000 0.000000 0.000000 0.000000 10.000000 
Rear_Leg01 0.000000 0.000000 0.000000 0.000000 0.000000 0.000000 10.000000 
Spine1 0.000000 0.000000 0.000000 0.000000 0.000000 0.000000 10.000000 
L_Leg01 0.000000 0.000000 0.000000 0.000000 0.000000 0.000000 10.000000 
L_Leg02 0.000000 0.000000 0.000000 0.000000 0.000000 0.000000 10.000000 
L_Leg03 0.000000 0.000000 0.000000 0.000000 0.000000 0.000000 10.000000 
L_Foot 0.000000 0.000000 0.000000 0.000000 0.000000 0.000000 10.000000 
L_Toe1_01 0.000000 0.000000 0.000000 0.000000 0.000000 0.000000 10.000000 
L_Toe2_01 0.000000 0.000000 0.000000 0.000000 0.000000 0.000000 10.000000 
L_Toe3_01 0.000000 0.000000 0.000000 0.000000 0.000000 0.000000 10.000000 
planeAlignerLeft 0.000000 0.000000 0.000000 0.000000 0.000000 0.000000 10.000000 
L_Toe1_02 0.000000 0.000000 0.000000 0.000000 0.000000 0.000000 10.000000 
L_Toe1_03 0.000000 0.000000 0.000000 0.000000 0.000000 0.000000 10.000000 
L_Toe2_02 0.000000 0.000000 0.000000 0.000000 0.000000 0.000000 10.000000 
L_Toe2_03 0.000000 0.000000 0.000000 0.000000 0.000000 0.000000 10.000000 
L_Toe3_02 0.000000 0.000000 0.000000 0.000000 0.000000 0.000000 10.000000 
L_Toe3_03 0.000000 0.000000 0.000000 0.000000 0.000000 0.000000 10.000000 
planeLockWeightLeft 0.000000 0.000000 0.000000 0.000000 0.000000 0.000000 10.000000 
R_Leg01 0.000000 0.000000 0.000000 0.000000 0.000000 0.000000 10.000000 
R_Leg02 0.000000 0.000000 0.000000 0.000000 0.000000 0.000000 10.000000 
R_Leg03 0.000000 0.000000 0.000000 0.000000 0.000000 0.000000 10.000000 
R_Foot 0.000000 0.000000 0.000000 0.000000 0.000000 0.000000 10.000000 
planeAlignerRight 0.000000 0.000000 0.000000 0.000000 0.000000 0.000000 10.000000 
R_Toe1_01 0.000000 0.000000 0.000000 0.000000 0.000000 0.000000 10.000000 
R_Toe2_01 0.000000 0.000000 0.000000 0.000000 0.000000 0.000000 10.000000 
R_Toe3_01 0.000000 0.000000 0.000000 0.000000 0.000000 0.000000 10.000000 
planeLockWeightRight 0.000000 0.000000 0.000000 0.000000 0.000000 0.000000 10.000000 
R_Toe1_02 0.000000 0.000000 0.000000 0.000000 0.000000 0.000000 10.000000 
R_Toe1_03 0.000000 0.000000 0.000000 0.000000 0.000000 0.000000 10.000000 
R_Toe2_02 0.000000 0.000000 0.000000 0.000000 0.000000 0.000000 10.000000 
R_Toe2_03 0.000000 0.000000 0.000000 0.000000 0.000000 0.000000 10.000000 
R_Toe3_02 0.000000 0.000000 0.000000 0.000000 0.000000 0.000000 10.000000 
R_Toe3_03 0.000000 0.000000 0.000000 0.000000 0.000000 0.000000 10.000000 
Rear_Leg02 0.000000 0.000000 0.000000 0.000000 0.000000 0.000000 10.000000 
Rear_Leg03 0.000000 0.000000 0.000000 0.000000 0.000000 0.000000 10.000000 
Rear_Leg04 0.000000 0.000000 0.000000 0.000000 0.000000 0.000000 10.000000 
Rear_Foot 0.000000 0.000000 0.000000 0.000000 0.000000 0.000000 10.000000 
planeAlignerCenter 0.000000 0.000000 0.000000 0.000000 0.000000 0.000000 10.000000 
Rear_Toe1_01 0.000000 0.000000 0.000000 0.000000 0.000000 0.000000 10.000000 
Rear_Toe2_01 0.000000 0.000000 0.000000 0.000000 0.000000 0.000000 10.000000 
Rear_Toe3_01 0.000000 0.000000 0.000000 0.000000 0.000000 0.000000 10.000000 
planeLockWeightCenter 0.000000 0.000000 0.000000 0.000000 0.000000 0.000000 10.000000 
Rear_Toe1_02 0.000000 0.000000 0.000000 0.000000 0.000000 0.000000 10.000000 
Rear_Toe1_03 0.000000 0.000000 0.000000 0.000000 0.000000 0.000000 10.000000 
Rear_Toe2_02 0.000000 0.000000 0.000000 0.000000 0.000000 0.000000 10.000000 
Rear_Toe2_03 0.000000 0.000000 0.000000 0.000000 0.000000 0.000000 10.000000 
Rear_Toe3_02 0.000000 0.000000 0.000000 0.000000 0.000000 0.000000 10.000000 
Rear_Toe3_03 0.000000 0.000000 0.000000 0.000000 0.000000 0.000000 10.000000 
Back_Bone 0.000000 0.000000 0.000000 0.000000 0.000000 0.000000 10.000000 
Head 0.000000 0.000000 0.000000 0.000000 0.000000 0.000000 10.000000 
Motor_Bone 0.000000 0.000000 0.000000 0.000000 0.000000 0.000000 10.000000 
Ping_Mechanism 0.000000 0.000000 0.000000 0.000000 0.000000 0.000000 10.000000 
BN_LookIK 0.000000 0.000000 0.000000 0.000000 0.000000 0.000000 10.000000 
bottomMouth 0.000000 0.000000 0.000000 0.000000 0.000000 0.000000 10.000000 
L_Mouth01 0.000000 0.000000 0.000000 0.000000 0.000000 0.000000 10.000000 
L_mouthFront 0.000000 0.000000 0.000000 0.000000 0.000000 0.000000 10.000000 
mouthGun 0.000000 0.000000 0.000000 0.000000 0.000000 0.000000 10.000000 
R_Mouth01 0.000000 0.000000 0.000000 0.000000 0.000000 0.000000 10.000000 
R_mouthFront 0.000000 0.000000 0.000000 0.000000 0.000000 0.000000 10.000000 
TopMouth 0.000000 0.000000 0.000000 0.000000 0.000000 0.000000 10.000000 
weapon_bone 0.000000 0.000000 0.000000 0.000000 0.000000 0.000000 10.000000 
#Beginning of Data. Separated by tabs
#Fr	Tx	Ty	Tz	Rx	Ry	Rz	SF
[Pinger_Root]
4 388.888885 0.000000 0.000000 -0.000075 -0.000000 -0.000020 388.888885
5 518.518494 0.000000 0.000000 -0.000075 -0.000000 -0.000020 518.518494
6 648.148254 0.000000 0.000000 -0.000075 -0.000000 -0.000020 648.148254
[Pelvis]
4 663.841614 27.126696 5153.670410 -133.428238 -86.985138 79.634598 5196.319824
5 668.451721 96.062195 5183.057617 120.782593 -86.609505 -174.332092 5226.867676
6 669.872681 160.388275 5210.224609 99.933365 -82.759712 -153.172897 5255.558594
[L_Hip]
4 5.766392 125.831482 872.656799 -178.250168 -81.786369 87.376007 881.701050
5 5.766392 125.831482 872.656799 -178.250168 -81.786369 87.376007 881.701050
6 5.766392 125.831482 872.656799 -178.250168 -81.786369 87.376007 881.701050
[R_Hip]
4 5.765438 125.836372 -872.654907 -1.748770 81.786041 87.376961 881.699829
5 5.765438 125.836372 -872.654907 -1.748770 81.786041 87.376961 881.699829
6 5.765438 125.836372 -872.654907 -1.748770 81.786041 87.376961 881.699829
[Rear_Leg01]
4 -192.298416 -925.602966 -0.001907 166.092499 -1.838017 -157.299988 945.367432
5 -192.298416 -925.602966 -0.001907 169.347626 3.953200 -156.551682 945.367432
6 -192.298416 -925.602966 -0.001907 172.999023 8.926439 -158.652435 945.367432
[Spine1]
4 290.604584 5.007505 0.000477 42.351616 -18.418789 20.089582 290.647736
5 290.604584 5.007505 0.000477 42.358784 -18.866003 25.402182 290.647736
6 290.604584 5.007505 0.000477 42.232426 -19.433887 29.918272 290.647736
[L_Leg01]
4 761.932007 -0.002384 -0.069261 59.785645 -29.766029 -65.591263 761.932068
5 761.932007 -0.002384 -0.069261 62.281311 -25.965693 -66.672218 761.932068
6 761.932007 -0.002384 -0.069261 64.478470 -22.861515 -67.754051 761.932068
[L_Leg02]
4 1441.140503 -0.000954 -0.000715 -1.457722 0.576768 -99.919044 1441.140503
5 1441.140503 -0.000954 -0.000715 -1.427436 0.643256 -101.333855 1441.140503
6 1441.140503 -0.000954 -0.000715 -1.385258 0.699432 -102.010696 1441.140503
[L_Leg03]
4 1686.963989 -0.000715 -0.000954 0.043651 -0.010353 98.735512 1686.963989
5 1686.963989 -0.000715 -0.000954 0.054241 -0.013185 95.648613 1686.963989
6 1686.963989 -0.000715 -0.000954 0.064968 -0.015443 92.561714 1686.963989
[L_Foot]
4 3041.570068 -30.715107 11.297464 -8.062410 15.802504 53.765862 3041.746094
5 3041.570068 -30.715107 11.297464 -8.811802 16.050592 56.815483 3041.746094
6 3041.570068 -30.715107 11.297464 -9.516117 16.277514 59.487171 3041.746094
[L_Toe1_01]
4 -188.216690 -224.732346 -21.137953 89.665649 -3.258687 -165.127487 293.899567
5 -188.216690 -224.732346 -21.137953 89.607658 -3.022542 -164.837952 293.899567
6 -188.216690 -224.732346 -21.137953 89.550888 -2.786105 -164.548706 293.899567
[L_Toe2_01]
4 200.746536 -219.926590 148.838394 -77.527504 -14.312325 -44.525112 332.896027
5 200.746536 -219.926590 148.838394 -77.570984 -14.171258 -44.493946 332.896027
6 200.746536 -219.926590 148.838394 -77.614349 -14.030165 -44.462894 332.896027
[L_Toe3_01]
4 188.832520 -219.859131 -191.078659 -105.214287 14.737993 -45.311977 347.140900
5 188.832520 -219.859131 -191.078659 -105.294487 14.933207 -45.428192 347.140900
6 188.832520 -219.859131 -191.078659 -105.426964 15.314768 -45.598030 347.140900
[planeAlignerLeft]
4 -9.674072 -610.424377 26.503141 0.000000 -90.000000 -90.001900 611.076050
5 -15.739197 -611.707458 21.972603 0.000000 -90.000000 -90.001900 612.304260
6 -21.804323 -612.990417 17.442059 0.000000 -90.000000 -90.001900 613.626038
[L_Toe1_02]
4 413.761139 0.000477 0.000000 0.001412 -22.411362 0.001412 413.761139
5 413.761139 0.000477 0.000000 0.001410 -22.631678 0.001410 413.761139
6 413.761139 0.000477 0.000000 0.001409 -22.851999 0.001409 413.761139
[L_Toe1_03]
4 464.317322 0.000358 -0.000089 0.015129 81.101547 0.015129 464.317322
5 464.317322 0.000358 -0.000089 0.013740 80.199409 0.013740 464.317322
6 464.317322 0.000358 -0.000089 0.012585 79.297218 0.012585 464.317322
[L_Toe2_02]
4 342.235809 -0.000477 0.000238 0.001180 -77.623657 0.001180 342.235809
5 342.235809 -0.000477 0.000238 0.001180 -77.785294 0.001180 342.235809
6 342.235809 -0.000477 0.000238 0.001180 -77.946854 0.001180 342.235809
[L_Toe2_03]
4 420.210846 -0.000715 0.000000 -179.996414 77.651848 -179.992905 420.210846
5 420.210846 -0.000715 0.000000 -179.996689 76.978912 -179.993179 420.210846
6 420.210846 -0.000715 0.000000 -179.997040 76.000107 -179.993515 420.210846
[L_Toe3_02]
4 329.270111 0.000954 0.000000 0.001177 -81.836365 0.001177 329.270111
5 329.270111 0.000954 0.000000 0.001177 -81.821663 0.001177 329.270111
6 329.270111 0.000954 0.000000 0.001177 -81.875076 0.001177 329.270111
[L_Toe3_03]
4 439.137451 -0.001907 0.000954 -179.997833 73.186462 -179.994293 439.137451
5 439.137451 -0.001907 0.000954 -179.997925 72.787086 -179.994400 439.137451
6 439.137451 -0.001907 0.000954 -179.998016 72.387741 -179.994476 439.137451
[planeLockWeightLeft]
4 999.999268 0.097997 0.076265 -0.011826 -0.004376 0.005620 999.999268
5 999.999268 0.098008 0.076262 -0.011826 -0.004376 0.005620 999.999268
6 999.999268 0.098020 0.076258 -0.011826 -0.004376 0.005620 999.999268
[R_Leg01]
4 761.455627 -0.001907 -0.000358 94.337158 7.711330 97.802055 761.455688
5 761.455627 -0.001907 -0.000358 95.359802 16.727163 99.112831 761.455688
6 761.455627 -0.001907 -0.000358 96.500626 24.740986 100.479530 761.455688
[R_Leg02]
4 1441.140625 0.000000 -0.000238 0.194620 -0.001627 -79.393097 1441.140625
5 1441.140625 0.000000 -0.000238 0.201883 0.009370 -73.986893 1441.140625
6 1441.140625 0.000000 -0.000238 0.210131 0.019613 -68.592697 1441.140625
[R_Leg03]
4 1686.963989 0.000954 0.001431 -0.119780 0.009775 77.841347 1686.963989
5 1686.963989 0.000954 0.001431 -0.128544 0.007415 75.284805 1686.963989
6 1686.963989 0.000954 0.001431 -0.137198 0.004666 72.726982 1686.963989
[R_Foot]
4 3041.560059 -30.531288 -11.204481 -5.136797 -20.011406 103.279152 3041.734131
5 3041.560059 -30.531288 -11.204481 -5.584339 -19.974104 104.442520 3041.734131
6 3041.560059 -30.531288 -11.204481 -6.030821 -19.928272 105.605125 3041.734131
[planeAlignerRight]
4 -6.117553 -736.805847 6.643219 0.000000 -89.960434 -90.005180 736.861145
5 -11.094666 -764.948914 10.089417 0.000000 -89.960434 -90.005180 765.095886
6 -16.071781 -793.091980 13.535616 0.000000 -89.960434 -90.005180 793.370239
[R_Toe1_01]
4 -188.383347 -224.864899 21.052242 90.878738 1.576698 -155.403091 294.101532
5 -188.383347 -224.864899 21.052242 90.971535 1.375626 -152.844574 294.101532
6 -188.383347 -224.864899 21.052242 91.055313 1.170506 -150.285309 294.101532
[R_Toe2_01]
4 200.637817 -220.002121 -148.787384 -103.826653 10.293144 -53.632465 332.857574
5 200.637817 -220.002121 -148.787384 -104.126518 9.758670 -55.449745 332.857574
6 200.637817 -220.002121 -148.787384 -104.408646 9.215119 -57.261341 332.857574
[R_Toe3_01]
4 188.606735 -220.092957 191.126343 -71.753265 -13.391944 -55.724792 347.192566
5 188.606735 -220.092957 191.126343 -71.258972 -13.045221 -57.623417 347.192566
6 188.606735 -220.092957 191.126343 -70.777451 -12.682776 -59.516239 347.192566
[planeLockWeightRight]
4 999.999146 -0.000458 0.076375 -0.011823 -0.004379 -0.000027 999.999146
5 999.999146 -0.000458 0.076389 -0.011823 -0.004379 -0.000027 999.999146
6 999.999084 -0.000458 0.076404 -0.011823 -0.004379 -0.000027 999.999084
[R_Toe1_02]
4 413.762085 0.000477 -0.000119 0.001396 -24.370998 0.001396 413.762085
5 413.762085 0.000477 -0.000119 0.001393 -24.864172 0.001393 413.762085
6 413.762085 0.000477 -0.000119 0.001389 -25.357355 0.001389 413.762085
[R_Toe1_03]
4 464.317810 0.000000 0.001088 0.007231 71.318886 0.007231 464.317810
5 464.317810 0.000000 0.001088 0.006052 67.635483 0.006052 464.317810
6 464.317810 0.000000 0.001088 0.005068 63.180290 0.005068 464.317810
[R_Toe2_02]
4 342.234741 -0.000954 0.000238 -0.001463 -73.978012 -0.001463 342.234741
5 342.234741 -0.000954 0.000238 -0.000581 -73.151146 -0.000581 342.234741
6 342.234741 -0.000954 0.000238 0.000303 -72.324318 0.000303 342.234741
[R_Toe2_03]
4 420.210846 0.000715 -0.000268 0.000000 89.861519 -0.003496 420.210846
5 420.210846 0.000715 -0.000268 -0.027658 87.760078 -0.031156 420.210846
6 420.210846 0.000715 -0.000268 0.028188 85.227554 0.028188 420.210846
[R_Toe3_02]
4 329.270355 -0.000477 -0.000954 0.001180 -77.804810 0.001180 329.270355
5 329.270355 -0.000477 -0.000954 0.001181 -76.937737 0.001181 329.270355
6 329.270355 -0.000477 -0.000954 0.001182 -76.070702 0.001182 329.270355
[R_Toe3_03]
4 439.137939 0.000238 0.001431 -179.974792 87.555992 -179.971298 439.137939
5 439.137939 0.000238 0.001431 0.000000 89.918434 0.003496 439.137939
6 439.137939 0.000238 0.001431 -0.025613 87.239838 -0.022115 439.137939
[Rear_Leg02]
4 1162.777710 -0.029802 0.005960 29.475548 -1.907473 -126.730789 1162.777710
5 1162.777710 -0.029802 0.005960 28.162579 2.526825 -135.977341 1162.777710
6 1162.777710 -0.029802 0.005960 26.547556 3.382916 -141.283417 1162.777710
[Rear_Leg03]
4 607.192505 -0.013351 -0.073195 0.009843 -0.006267 81.323135 607.192505
5 607.192505 -0.013351 -0.073195 0.009849 -0.006256 81.202652 607.192505
6 607.192505 -0.013351 -0.073195 0.009856 -0.006246 81.082123 607.192505
[Rear_Leg04]
4 995.874512 -0.020504 -0.011921 -0.043158 -0.012139 114.400253 995.874573
5 995.874512 -0.020504 -0.011921 -0.039498 -0.007105 121.273232 995.874573
6 995.874512 -0.020504 -0.011921 -0.039598 -0.006528 122.946136 995.874573
[Rear_Foot]
4 3096.176270 -0.067472 -0.041425 -70.448456 61.261551 66.102028 3096.176270
5 3096.176270 -0.067472 -0.041425 -63.632633 59.392418 84.898628 3096.176270
6 3096.176270 -0.067472 -0.041425 -53.729176 57.177113 98.798370 3096.176270
[planeAlignerCenter]
4 5.088596 266.847198 -756.151062 0.000009 0.000003 -179.999985 801.871460
5 6.617594 281.169891 -758.262024 0.000009 0.000003 -179.999985 808.740784
6 8.146589 295.492554 -760.373047 0.000009 0.000003 -179.999985 815.812073
[Rear_Toe1_01]
4 0.653352 83.966492 -371.173737 0.093884 39.724400 90.045059 380.553192
5 0.653352 83.966492 -371.173737 0.091278 39.757851 90.043945 380.553192
6 0.653352 83.966492 -371.173737 0.088673 39.791321 90.042854 380.553192
[Rear_Toe2_01]
4 178.200760 -294.826019 -362.060547 98.697182 83.707893 28.092026 499.765686
5 178.200760 -294.826019 -362.060547 111.233536 82.576508 40.642742 499.765686
6 178.200760 -294.826019 -362.060547 118.944809 81.488396 48.339008 499.765686
[Rear_Toe3_01]
4 -153.359680 -308.780914 -362.060852 -96.293449 82.926651 152.110474 499.952881
5 -153.359680 -308.780914 -362.060852 -107.754974 81.807236 140.633896 499.952881
6 -153.359680 -308.780914 -362.060852 -114.984818 80.735962 133.413040 499.952881
[planeLockWeightCenter]
4 0.000210 0.000057 0.076447 -0.011814 -0.004373 -0.000015 0.076447
5 156.250198 0.000076 0.076370 -0.011814 -0.004373 -0.000015 156.250214
6 500.000427 0.000191 0.076370 -0.011814 -0.004373 -0.000015 500.000427
[Rear_Toe1_02]
4 379.707825 0.194073 0.000477 -0.000767 -33.624729 0.000838 379.707855
5 379.707825 0.194073 0.000477 -0.000767 -33.624729 0.000838 379.707855
6 379.707825 0.194073 0.000477 -0.000767 -33.624729 0.000838 379.707855
[Rear_Toe1_03]
4 500.129700 0.165701 0.000119 -0.031732 88.031990 -0.035231 500.129761
5 500.129700 0.165701 0.000119 -0.010598 84.664352 -0.014098 500.129761
6 500.129700 0.165701 0.000119 0.016467 81.826080 0.016467 500.129761
[Rear_Toe2_02]
4 340.494507 0.000238 -0.000954 179.998825 -87.146660 179.998825 340.494507
5 340.494507 0.000238 -0.000954 179.998825 -87.085365 179.998825 340.494507
6 340.494507 0.000238 -0.000954 179.998825 -87.023956 179.998825 340.494507
[Rear_Toe2_03]
4 433.103577 0.000000 0.000238 -179.996307 54.058144 -179.999985 433.103546
5 433.103577 0.000000 0.000238 -179.996323 53.563992 180.000000 433.103546
6 433.103577 0.000000 0.000238 -179.996338 53.464321 180.000000 433.103546
[Rear_Toe3_02]
4 340.494141 -0.000358 -0.000477 -179.994171 -87.197815 -179.994171 340.494171
5 340.494141 -0.000358 -0.000477 -179.994171 -87.137543 -179.994171 340.494171
6 340.494141 -0.000358 -0.000477 -179.994171 -87.077316 -179.994171 340.494171
[Rear_Toe3_03]
4 433.103577 0.001431 -0.000238 179.992493 54.366444 179.999847 433.103546
5 433.103577 0.001431 -0.000238 179.992538 53.896641 179.999893 433.103546
6 433.103577 0.001431 -0.000238 179.992554 53.813457 179.999893 433.103546
[Back_Bone]
4 1312.175781 -701.934692 0.000954 -3.212733 -0.037430 -84.636566 1488.125488
5 1312.175781 -701.934692 0.000954 -3.274355 -0.867710 -84.454651 1488.125488
6 1312.175781 -701.934692 0.000954 -3.338629 -1.697743 -84.271774 1488.125488
[Head]
4 1406.159424 809.709290 0.001431 5.953306 -3.353545 2.157138 1622.625488
5 1406.159424 809.709290 0.001431 5.556498 -3.529792 1.710069 1622.625488
6 1406.159424 809.709290 0.001431 5.160990 -3.709127 1.264132 1622.625488
[Motor_Bone]
4 1158.364380 -417.834747 0.000477 0.251855 -0.541808 -106.527908 1231.419434
5 1158.364380 -417.834747 0.000477 2.270587 -1.149517 -107.133400 1231.419434
6 1158.364380 -417.834747 0.000477 1.114804 -1.132542 -107.122055 1231.419434
[Ping_Mechanism]
4 1228.109131 -440.319824 0.894528 0.000103 -0.000053 82.120995 1304.658691
5 1211.578369 -429.280396 -15.875472 0.000103 -0.000053 82.120995 1285.478760
6 1198.537598 -417.285156 -28.286516 0.000103 -0.000053 82.120995 1269.416992
[BN_LookIK]
4 193.241119 1380.371704 -0.002861 0.000000 89.965736 -31.038179 1393.832153
5 193.241119 1380.371704 -0.002861 0.000000 89.965736 -31.038179 1393.832153
6 193.241119 1380.371704 -0.002861 0.000000 89.965736 -31.038179 1393.832153
[bottomMouth]
4 -435.092926 615.759399 -0.000954 -0.000022 0.000016 73.527184 753.966492
5 -435.092926 615.759399 -0.000954 -0.000022 0.000016 73.527184 753.966492
6 -435.092926 615.759399 -0.000954 -0.000022 0.000016 73.527184 753.966492
[L_Mouth01]
4 554.440979 7.658243 838.222046 150.204178 23.759130 109.605339 1005.027161
5 554.440979 7.658243 838.222046 150.204178 23.759130 109.605339 1005.027161
6 554.440979 7.658243 838.222046 150.204178 23.759130 109.605339 1005.027161
[L_mouthFront]
4 551.629089 934.514771 339.150421 0.000081 2.804060 79.119301 1136.941284
5 551.629089 934.514771 339.150421 0.000081 2.804060 79.119301 1136.941284
6 551.629089 934.514771 339.150421 0.000081 2.804060 79.119301 1136.941284
[mouthGun]
4 55.332661 1627.420898 0.000000 0.000023 0.000009 -11.038128 1628.361328
5 55.332661 1627.420898 0.000000 0.000023 0.000009 -11.038128 1628.361328
6 55.332661 1627.420898 0.000000 0.000023 0.000009 -11.038128 1628.361328
[R_Mouth01]
4 554.442383 7.659197 -838.223938 29.795891 -23.759109 109.605331 1005.029541
5 554.442383 7.659197 -838.223938 29.795891 -23.759109 109.605331 1005.029541
6 554.442383 7.659197 -838.223938 29.795891 -23.759109 109.605331 1005.029541
[R_mouthFront]
4 551.629089 934.514282 -339.151367 0.000029 -2.803930 79.119133 1136.941162
5 551.629089 934.514282 -339.151367 0.000029 -2.803930 79.119133 1136.941162
6 551.629089 934.514282 -339.151367 0.000029 -2.803930 79.119133 1136.941162
[TopMouth]
4 461.269867 -56.106091 -0.008583 -0.000059 -0.000268 92.025169 464.669525
5 461.269867 -56.106091 -0.008583 -0.000059 -0.000268 92.025169 464.669525
6 461.269867 -56.106091 -0.008583 -0.000059 -0.000268 92.025169 464.669525
[weapon_bone]
4 -987.239868 1448.372803 0.001431 0.000000 89.965736 -31.038221 1752.833740
5 -987.239868 1448.372803 0.001431 0.000000 89.965736 -31.038221 1752.833740
6 -987.239868 1448.372803 0.001431 0.000000 89.965736 -31.038221 1752.833740
